{"title":"The Shawshank Redemption 1994 720p BluRay x264 AC3 5.1-RiPRG","uid":12083060,"size":2378620643,"categoryP":"video","categoryS":"movies","magnet":"?xt=urn:btih:c16d4782d544e2c78fe73e97ebce1171c3e3b479&amp;dn=The+Shawshank+Redemption+1994+720p+BluRay+x264+AC3+5.1-RiPRG&amp;tr=udp%3A%2F%2Ftracker.openbittorrent.com%3A80&amp;tr=udp%3A%2F%2Fopen.demonii.com%3A1337&amp;tr=udp%3A%2F%2Ftracker.coppersurfer.tk%3A6969&amp;tr=udp%3A%2F%2Fexodus.desync.com%3A6969","seeders":0,"leechers":1,"uploader":"lyrical1986","files":3,"time":1435831125,"description":" &lt;a href=&quot;http://i284.photobucket.com/albums/ll25/Colin_Armo/91-p-BotNlL._SL1500__zpsuu9tpysj.jpg&quot; rel=&quot;nofollow&quot; target=&quot;_NEW&quot;&gt;http://i284.photobucket.com/albums/ll25/Colin_Armo/91-p-BotNlL._SL1500__zpsuu9tpysj.jpg&lt;/a&gt;\n\nThe Shawshank Redemption 1994 720p BluRay x264 AC3 5.1-RiPRG\n\nTwo imprisoned men bond over a number of years, finding solace and eventual redemption through acts of common decency.\n\nTim Robbins \t... Andy Dufresne\nMorgan Freeman \t... Ellis Boyd 'Red' Redding\nBob Gunton \t... Warden Norton\nWilliam Sadler \t... Heywood \n &lt;a href=&quot;\nhttp://www.imdb.com/title/tt0111161/&quot; rel=&quot;nofollow&quot; target=&quot;_NEW&quot;&gt;\nhttp://www.imdb.com/title/tt0111161/&lt;/a&gt;\n\nFormat                                   : Matroska\nFormat version                           : Version 2\nFile size                                : 2.21 GiB\nDuration                                 : 2h 22mn\nOverall bit rate                         : 2 217 Kbps\nWriting library                          : Lavf55.12.0\n\nVideo\nID                                       : 1\nFormat                                   : AVC\nFormat/Info                              : Advanced Video Codec\nFormat profile                           : Main@L4\nFormat settings, CABAC                   : Yes\nFormat settings, ReFrames                : 4 frames\nCodec ID                                 : V_MPEG4/ISO/AVC\nDuration                                 : 2h 22mn\nBit rate                                 : 2 000 Kbps\nWidth                                    : 1 280 pixels\nHeight                                   : 720 pixels\nDisplay aspect ratio                     : 16:9\nFrame rate mode                          : Constant\nFrame rate                               : 23.976 fps\nColor space                              : YUV\nChroma subsampling                       : 4:2:0\nBit depth                                : 8 bits\nScan type                                : Progressive\nBits/(Pixel*Frame)                       : 0.091\nStream size                              : 1.94 GiB (88%)\nWriting library                          : x264 core 142 r2479\nDefault                                  : Yes\nForced                                   : No\nColor range                              : Limited\n\nAudio\nID                                       : 2\nFormat                                   : AC-3\nFormat/Info                              : Audio Coding 3\nMode extension                           : CM (complete main)\nFormat settings, Endianness              : Big\nCodec ID                                 : A_AC3\nDuration                                 : 2h 22mn\nBit rate mode                            : Constant\nBit rate                                 : 224 Kbps\nChannel(s)                               : 6 channels\nChannel positions                        : Front: L C R, Side: L R, LFE\nSampling rate                            : 48.0 KHz\nCompression mode                         : Lossy\nDelay relative to video                  : 27ms\nStream size                              : 228 MiB (10%)\nTitle                                    : Surround\nLanguage                                 : English\nDefault                                  : Yes\nForced                                   : No\n &lt;a href=&quot;\nhttp://i284.photobucket.com/albums/ll25/Colin_Armo/vlcsnap-2015-07-02-08h46m20s881_zpsmmchympw.png&quot; rel=&quot;nofollow&quot; target=&quot;_NEW&quot;&gt;\nhttp://i284.photobucket.com/albums/ll25/Colin_Armo/vlcsnap-2015-07-02-08h46m20s881_zpsmmchympw.png&lt;/a&gt; &lt;a href=&quot;\nhttp://i284.photobucket.com/albums/ll25/Colin_Armo/vlcsnap-2015-07-02-08h45m02s428_zpshvi9suue.png&quot; rel=&quot;nofollow&quot; target=&quot;_NEW&quot;&gt;\nhttp://i284.photobucket.com/albums/ll25/Colin_Armo/vlcsnap-2015-07-02-08h45m02s428_zpshvi9suue.png&lt;/a&gt; &lt;a href=&quot;\nhttp://i284.photobucket.com/albums/ll25/Colin_Armo/vlcsnap-2015-07-02-08h46m05s491_zps80d56pdw.png&quot; rel=&quot;nofollow&quot; target=&quot;_NEW&quot;&gt;\nhttp://i284.photobucket.com/albums/ll25/Colin_Armo/vlcsnap-2015-07-02-08h46m05s491_zps80d56pdw.png&lt;/a&gt;","torrent":{"xt":"urn:btih:c16d4782d544e2c78fe73e97ebce1171c3e3b479","amp;dn":"The+Shawshank+Redemption+1994+720p+BluRay+x264+AC3+5.1-RiPRG","amp;tr":["udp%3A%2F%2Ftracker.openbittorrent.com%3A80","udp%3A%2F%2Fopen.demonii.com%3A1337","udp%3A%2F%2Ftracker.coppersurfer.tk%3A6969","udp%3A%2F%2Fexodus.desync.com%3A6969"],"infoHash":"c16d4782d544e2c78fe73e97ebce1171c3e3b479","infoHashBuffer":{"type":"Buffer","data":[193,109,71,130,213,68,226,199,143,231,62,151,235,206,17,113,195,227,180,121]},"announce":[],"urlList":[]}}